<svg id="Ebene_1" data-name="Ebene 1" xmlns="http://www.w3.org/2000/svg" viewBox="0 0 256 256"><defs><style>.cls-1{fill:none;}.cls-1,.cls-2{stroke:#28348a;stroke-miterlimit:10;stroke-width:6.38px;}.cls-2{fill:#74cbf3;}</style></defs><path class="cls-1" d="M117.42,210.56c4,27.18-59,28-64.39-13.09-25.94,7.27-43.87-17.78-31.32-39.92-15-10.27-14.77-40.23.91-49.21-12-12.76,2.55-48.52,31.53-42.14-7.91-28.72,34-52.12,63.44-29.23Z"/><path class="cls-1" d="M53.26,59.82c2.16,12.74,13.37,22.61,26.17,24.9"/><path class="cls-1" d="M79.43,50.25c-3,19,29,27,37.67,14.68"/><path class="cls-1" d="M63.47,78.34c0,6.68-9,15.24-14,17.24"/><path class="cls-1" d="M43.69,117.28c7.87,4,8.05,15.43,16.57,18,8.93,2.66,13.79-7.21,17.38-14.06,5.46-10.44,13.58-14.68,25.41-12.82,3.86.61,10.55,3.31,12.77,4.44"/><path class="cls-1" d="M34.75,116.64c6.11,7.59,15.93-3.62,9.57-10.21"/><path class="cls-1" d="M117.74,156.23c-8.38-8.36-21.44,1.07-24.25,10.12-3.32,10.66,6.76,19.34,3.22,29.72-2.15,6.31-7.1,9.08-13.44,8"/><path class="cls-1" d="M53.26,202.82c-9.84-25.76,38.94-18.51,17.87-57.45"/><path class="cls-1" d="M21.34,158.78c3.5-5.72,11.84-6.15,17.92-5.77,5.5.34,11.68,4.48,14,5.12"/><path class="cls-1" d="M220.3,69.63,209,75.81a86.1,86.1,0,0,0-11.86-11.52l9.92-16.76L182.91,33.21,172.68,50.49a86.89,86.89,0,0,0-15.5-4V26.17H143.29V229.83h13.89V217.25a86,86,0,0,0,15.34-4l6,11.25,24.81-13.18-6.26-11.81a88.1,88.1,0,0,0,12.68-12.42l11.72,7.47,15.1-23.7-12.62-8.05a85.86,85.86,0,0,0,4.76-18l15.75.52.91-28.09-17-.56a85.71,85.71,0,0,0-4.78-16.83l15.62-8.55L225.65,66.7l-5.35,2.93"/><path class="cls-2" d="M143.29,66.56V85.94a42.06,42.06,0,0,1,0,84.12v19.37a61.44,61.44,0,0,0,0-122.87Z"/></svg>