<?xml version="1.0" encoding="UTF-8"?>
<svg width="800pt" height="500pt" version="1.1" viewBox="0 100 700 400" xmlns="http://www.w3.org/2000/svg" xmlns:xlink="http://www.w3.org/1999/xlink">
<g>
<path fill="#a77d44" d="m406 313.6v-42.48l-11.199-11.199 22.398-22.398v81.676c0 3.0898-2.5078 5.6016-5.6016 5.6016h-81.68l11.199-11.199zm22.398 56h-143.28l-11.199 11.199h160.08c3.0898 0 5.6016-2.5078 5.6016-5.6016v-160.08l-11.199 11.199zm54.359-214.44-257.6 257.6c-2.1836 2.1914-5.7344 2.1914-7.918 0-2.1914-2.1914-2.1914-5.7305 0-7.918l31.961-31.961v-210.48c0-3.0898 2.5078-5.6016 5.6016-5.6016h179.2c3.0898 0 5.6016 2.5078 5.6016 5.6016v20.082l35.242-35.242c2.1914-2.1914 5.7305-2.1914 7.918 0 2.1875 2.1914 2.1875 5.7305-0.003907 7.9219zm-222.36 206.52 36.883-36.879h-20.082c-3.0898 0-5.6016-2.5078-5.6016-5.6016l0.003906-134.4c0-3.0898 2.5078-5.6016 5.6016-5.6016h134.4c3.0898 0 5.6016 2.5078 5.6016 5.6016v20.082l11.199-11.199-0.003906-25.684h-168zm115.96-120.2c-2.1914-2.1914-5.7305-2.1914-7.918 0l-40.84 40.844-18.672-18.672c-2.1914-2.1914-5.7344-2.1914-7.918 0l-18.211 18.207v31.746h25.68l70-70z"/>
</g>
</svg>
